<?xml version="1.0" standalone="no"?>
<!DOCTYPE svg PUBLIC "-//W3C//DTD SVG 20010904//EN"
 "http://www.w3.org/TR/2001/REC-SVG-20010904/DTD/svg10.dtd">
<svg version="1.0" xmlns="http://www.w3.org/2000/svg"
 width="5000.000000pt" height="5000.000000pt" viewBox="0 0 5000.000000 5000.000000"
 preserveAspectRatio="xMidYMid meet">
<metadata>
Created by potrace 1.11, written by Peter Selinger 2001-2013
</metadata>
<g transform="translate(0.000000,5000.000000) scale(0.100000,-0.100000)"
fill="#000000" stroke="none">
<path d="M10835 49989 c-1826 -96 -3621 -590 -5135 -1412 -925 -502 -1675
-1071 -2495 -1892 -1265 -1267 -2056 -2531 -2578 -4120 -324 -987 -516 -2023
-609 -3290 -11 -148 -13 -2719 -13 -14305 0 -13414 1 -14138 18 -14385 119
-1750 425 -3070 992 -4275 219 -466 605 -1121 963 -1635 414 -594 781 -1035
1262 -1515 443 -444 813 -752 1380 -1150 1280 -898 2414 -1405 3817 -1705 655
-140 1191 -210 2188 -287 221 -17 28156 -25 28550 -8 1768 75 3150 373 4368
941 528 247 1379 755 1962 1174 184 132 524 387 625 470 990 807 1858 1919
2633 3370 639 1198 1048 2710 1191 4410 50 582 47 -366 43 14705 -2 10949 -6
14048 -15 14165 -66 812 -88 1001 -173 1515 -69 422 -159 824 -270 1209 -765
2658 -2585 5012 -4986 6449 -1014 608 -2078 1023 -3298 1287 -598 129 -1120
204 -1910 272 -189 16 -1009 18 -14280 19 -7744 0 -14147 -2 -14230 -7z m7085
-9039 c2029 -106 3935 -779 5560 -1965 425 -310 789 -623 1191 -1024 286 -287
446 -461 653 -710 1358 -1634 2169 -3599 2351 -5691 36 -421 46 -998 25 -1410
-98 -1861 -676 -3615 -1699 -5155 -998 -1501 -2419 -2753 -4026 -3544 -1204
-593 -2415 -925 -3789 -1037 -259 -21 -1030 -30 -1308 -15 -833 46 -1582 171
-2378 398 -214 61 -315 118 -441 250 -120 126 -203 277 -246 449 -24 97 -24
325 1 414 43 159 120 295 230 409 126 130 275 218 441 260 182 45 282 38 556
-39 477 -134 959 -228 1444 -279 568 -61 1156 -66 1700 -16 1287 120 2480 511
3585 1173 1059 634 2013 1544 2698 2573 741 1114 1196 2352 1356 3689 43 360
51 507 51 990 0 497 -8 646 -56 1030 -213 1719 -940 3308 -2114 4625 -240 269
-660 667 -962 912 -2052 1666 -4766 2275 -7338 1648 -808 -197 -1587 -517
-2320 -953 -1269 -755 -2348 -1863 -3067 -3152 -606 -1084 -945 -2232 -1050
-3545 -17 -213 -17 -950 0 -1160 81 -1008 283 -1857 644 -2699 84 -196 100
-264 101 -411 0 -157 -25 -262 -98 -410 -110 -224 -257 -355 -508 -454 -145
-58 -303 -74 -458 -46 -260 45 -486 192 -621 405 -54 85 -196 424 -313 751
-675 1876 -778 3994 -289 5954 217 868 562 1745 985 2502 839 1502 2084 2807
3563 3733 1489 933 3112 1448 4876 1549 212 12 845 12 1070 1z m-166 -6420
c1120 -77 2101 -589 2805 -1465 448 -557 724 -1211 827 -1955 21 -156 30 -617
15 -791 -81 -931 -455 -1759 -1091 -2413 -625 -643 -1434 -1046 -2335 -1163
-177 -23 -773 -26 -925 -5 -368 51 -657 125 -970 249 -365 144 -728 352 -1025
587 -55 43 -105 83 -111 87 -12 9 -138 -129 -470 -516 -965 -1124 -1768 -2206
-2441 -3285 -1140 -1831 -2010 -3876 -2577 -6061 -406 -1566 -657 -3195 -756
-4904 -28 -490 -33 -697 -36 -1523 -2 -579 -7 -921 -14 -975 -41 -305 -187
-597 -409 -817 -148 -147 -272 -210 -444 -226 -204 -18 -400 60 -567 226 -102
102 -173 203 -245 348 -96 193 -133 332 -156 575 -14 152 -7 1548 10 1907 28
589 55 1000 97 1460 327 3606 1335 7031 2955 10040 1004 1865 2279 3596 3732
5066 l229 232 -51 153 c-121 365 -179 671 -202 1064 -19 326 14 726 86 1050
200 890 698 1675 1420 2240 750 587 1700 879 2649 815z m18141 -1945 c994
-105 1877 -423 2694 -967 641 -427 1180 -972 1616 -1633 525 -797 839 -1692
942 -2685 24 -231 24 -810 0 -1035 -37 -343 -82 -607 -158 -908 -232 -926
-702 -1805 -1334 -2493 -91 -98 -158 -142 -260 -169 -195 -50 -431 34 -551
198 -66 89 -98 200 -92 320 7 148 58 253 211 429 656 757 1065 1752 1148 2791
15 195 7 707 -15 882 -137 1098 -587 2043 -1341 2814 -390 398 -823 708 -1351
966 -1105 539 -2445 623 -3608 225 -702 -240 -1279 -593 -1801 -1102 -804
-782 -1308 -1807 -1442 -2933 -14 -118 -18 -228 -18 -515 0 -388 8 -486 60
-800 255 -1530 1236 -2836 2640 -3516 550 -267 1161 -430 1720 -459 362 -20
526 -92 630 -279 47 -86 65 -156 65 -254 0 -200 -118 -391 -298 -479 -67 -34
-81 -37 -182 -41 -201 -8 -627 35 -934 94 -766 148 -1499 450 -2156 887 -854
569 -1559 1380 -2000 2300 -314 656 -493 1303 -567 2047 -23 241 -23 755 0
1010 72 766 270 1459 611 2132 465 918 1145 1679 2001 2241 798 523 1765 858
2700 936 72 6 150 13 175 15 116 10 754 -4 895 -19z m-480 -3755 c231 -23 420
-68 601 -146 509 -217 915 -655 1083 -1169 21 -66 52 -178 67 -250 26 -122 28
-145 28 -365 0 -219 -2 -244 -27 -365 -63 -295 -180 -557 -355 -795 -121 -164
-356 -378 -515 -469 -31 -18 -57 -34 -57 -35 0 -8 126 -310 186 -446 98 -223
365 -754 490 -975 453 -802 997 -1547 1639 -2245 196 -212 655 -664 855 -841
462 -409 861 -718 1355 -1051 949 -639 1958 -1153 3109 -1584 308 -115 446
-281 446 -539 0 -243 -189 -463 -434 -506 -37 -6 -87 -9 -110 -6 -102 14 -848
300 -1276 489 -277 123 -839 400 -1100 543 -1690 929 -3135 2136 -4287 3582
-751 942 -1367 1995 -1804 3083 l-86 215 -115 16 c-497 71 -896 257 -1204 564
-400 398 -595 918 -563 1496 19 338 130 658 332 963 63 95 112 152 226 266
157 156 263 237 440 336 327 182 723 268 1076 234z"/>
</g>
</svg>
